<svg width="41" height="41" viewBox="0 0 41 41" fill="none" xmlns="http://www.w3.org/2000/svg">
<rect width="41" height="41" rx="10" fill="#E9A077" fill-opacity="0.1"/>
<path fill-rule="evenodd" clip-rule="evenodd" d="M12 15C12.8284 15 13.5 14.3284 13.5 13.5C13.5 12.6716 12.8284 12 12 12C11.1716 12 10.5 12.6716 10.5 13.5C10.5 14.3284 11.1716 15 12 15ZM17.625 12.75C17.0037 12.75 16.5 13.2537 16.5 13.875C16.5 14.4963 17.0037 15 17.625 15H30.375C30.9963 15 31.5 14.4963 31.5 13.875C31.5 13.2537 30.9963 12.75 30.375 12.75H17.625ZM17.625 20.25C17.0037 20.25 16.5 20.7537 16.5 21.375C16.5 21.9963 17.0037 22.5 17.625 22.5H30.375C30.9963 22.5 31.5 21.9963 31.5 21.375C31.5 20.7537 30.9963 20.25 30.375 20.25H17.625ZM17.625 27.75C17.0037 27.75 16.5 28.2537 16.5 28.875C16.5 29.4963 17.0037 30 17.625 30H30.375C30.9963 30 31.5 29.4963 31.5 28.875C31.5 28.2537 30.9963 27.75 30.375 27.75H17.625ZM13.5 21C13.5 21.8284 12.8284 22.5 12 22.5C11.1716 22.5 10.5 21.8284 10.5 21C10.5 20.1716 11.1716 19.5 12 19.5C12.8284 19.5 13.5 20.1716 13.5 21ZM12 30C12.8284 30 13.5 29.3284 13.5 28.5C13.5 27.6715 12.8284 27 12 27C11.1716 27 10.5 27.6715 10.5 28.5C10.5 29.3284 11.1716 30 12 30Z" fill="#E9A077"/>
</svg>
