<svg width="41" height="41" viewBox="0 0 41 41" fill="none" xmlns="http://www.w3.org/2000/svg">
<rect width="41" height="41" rx="10" fill="#8BA2E2" fill-opacity="0.1"/>
<path fill-rule="evenodd" clip-rule="evenodd" d="M17.2499 14.25C16.4542 14.25 15.6912 14.5661 15.1286 15.1287C14.566 15.6913 14.2499 16.4543 14.2499 17.25C14.2499 18.0456 14.566 18.8087 15.1286 19.3713C15.6912 19.9339 16.4542 20.25 17.2499 20.25C18.0455 20.25 18.8086 19.9339 19.3712 19.3713C19.9338 18.8087 20.2499 18.0456 20.2499 17.25C20.2499 16.4543 19.9338 15.6913 19.3712 15.1287C18.8086 14.5661 18.0455 14.25 17.2499 14.25ZM11.9999 17.25C11.9998 16.3798 12.216 15.5232 12.629 14.7573C13.0421 13.9914 13.639 13.3402 14.3662 12.8622C15.0934 12.3842 15.928 12.0945 16.7949 12.0191C17.6618 11.9437 18.5339 12.0849 19.3327 12.4302C20.1314 12.7754 20.8319 13.3137 21.371 13.9968C21.9101 14.6799 22.271 15.4863 22.4211 16.3434C22.5713 17.2005 22.5061 18.0816 22.2313 18.9072C21.9565 19.7329 21.4807 20.4773 20.8469 21.0735C22.0422 21.6534 23.08 22.513 23.8722 23.5794C24.6646 24.6459 25.1879 25.8877 25.3979 27.1995C25.4447 27.4942 25.3724 27.7956 25.1969 28.0371C25.0216 28.2786 24.7574 28.4404 24.4627 28.4872C24.1679 28.534 23.8666 28.4617 23.6251 28.2862C23.3836 28.1109 23.2216 27.8467 23.1749 27.552C22.9479 26.1441 22.227 24.8629 21.1413 23.9382C20.0556 23.0135 18.676 22.5057 17.2499 22.5057C15.8238 22.5057 14.4442 23.0135 13.3585 23.9382C12.2728 24.8629 11.5519 26.1441 11.3249 27.552C11.3017 27.6979 11.2499 27.8379 11.1726 27.9639C11.0952 28.0899 10.9938 28.1994 10.8742 28.2861C10.7545 28.3729 10.619 28.4352 10.4752 28.4695C10.3315 28.504 10.1824 28.5097 10.0364 28.4865C9.89043 28.4632 9.75047 28.4115 9.62452 28.3341C9.49856 28.2568 9.38907 28.1554 9.30229 28.0357C9.21551 27.9162 9.15315 27.7806 9.11877 27.6367C9.08439 27.493 9.07865 27.3439 9.1019 27.198C9.3124 25.8867 9.83596 24.6456 10.6282 23.5796C11.4204 22.5138 12.458 21.6546 13.6529 21.075C13.1302 20.5846 12.7138 19.992 12.4294 19.3341C12.1451 18.6761 11.9989 17.9668 11.9999 17.25ZM25.4999 15C25.2016 15 24.9154 15.1185 24.7045 15.3295C24.4934 15.5405 24.3749 15.8266 24.3749 16.125C24.3749 16.4234 24.4934 16.7095 24.7045 16.9205C24.9154 17.1315 25.2016 17.25 25.4999 17.25C26.0074 17.25 26.5 17.4216 26.8978 17.737C27.2954 18.0523 27.5749 18.4928 27.6905 18.987C27.8062 19.4811 27.7514 19.9999 27.5351 20.459C27.3188 20.9181 26.9537 21.2906 26.4989 21.516C26.3114 21.6093 26.1536 21.753 26.0434 21.9311C25.9331 22.1092 25.8748 22.3145 25.8749 22.524V23.052C25.8746 23.3047 25.9594 23.5501 26.1155 23.7488C26.2717 23.9474 26.4902 24.0877 26.7359 24.147C28.5359 24.5805 29.9789 25.947 30.5189 27.705C30.5617 27.8467 30.6322 27.9787 30.7261 28.0933C30.8201 28.2078 30.9358 28.3027 31.0666 28.3725C31.1972 28.4421 31.3405 28.4853 31.4879 28.4995C31.6354 28.5138 31.7842 28.4986 31.9259 28.4553C32.0675 28.4118 32.1992 28.3408 32.3132 28.2463C32.4274 28.1518 32.5217 28.0357 32.5909 27.9046C32.66 27.7737 32.7026 27.6303 32.7161 27.4827C32.7298 27.3352 32.714 27.1864 32.6699 27.045C32.3696 26.0709 31.8743 25.168 31.2142 24.3915C30.554 23.6148 29.7428 22.9804 28.8299 22.527C29.4163 21.8819 29.8028 21.0804 29.9422 20.2198C30.0817 19.3592 29.9681 18.4766 29.6155 17.6794C29.2627 16.8821 28.6859 16.2045 27.9554 15.7288C27.2248 15.2531 26.3717 14.9999 25.4999 15Z" fill="#8BA2E2"/>
</svg>
