<svg width="17" height="52" viewBox="0 0 17 52" fill="none" xmlns="http://www.w3.org/2000/svg">
<g clip-path="url(#clip0)">
<path d="M10.0563 11.3555C11.1612 14.6071 12.4544 17.7961 13.9234 20.9101C14.2373 21.5854 15.1915 21.9731 15.8946 21.8731C16.5098 21.7855 17.2003 21.2603 16.9367 20.5474C14.6767 14.2319 12.5925 7.85381 10.772 1.40071C10.3953 0.0875772 7.62057 -0.76283 7.41968 1.07555C7.35691 1.68835 7.29413 2.30114 7.23135 2.91394C4.70772 8.74174 2.32219 14.6196 0.0622224 20.5599C-0.264219 21.3978 0.426326 22.2107 1.17965 22.5359C1.85764 22.836 3.06296 22.836 3.3894 21.9981C4.41894 19.2843 5.4736 16.5955 6.54081 13.8942C6.26459 22.736 6.61614 31.6152 7.5829 40.4195C7.98467 44.1087 8.65011 47.773 9.37832 51.3997C9.50388 52 10.9101 52.3127 10.8473 51.5498C9.84287 38.6561 9.29044 25.6999 9.96843 12.7687C10.0061 12.2934 10.0312 11.8182 10.0563 11.3555Z" fill="#1BDB74"/>
</g>
<defs>
<clipPath id="clip0">
<rect width="17" height="52" fill="white" transform="translate(17 52) rotate(-180)"/>
</clipPath>
</defs>
</svg>
