<svg width="41" height="41" viewBox="0 0 41 41" fill="none" xmlns="http://www.w3.org/2000/svg">
<rect width="41" height="41" rx="10" fill="#9CDA69" fill-opacity="0.1"/>
<path fill-rule="evenodd" clip-rule="evenodd" d="M20.9999 9.375C21.2099 9.37487 21.4158 9.43352 21.5942 9.54433C21.7726 9.65514 21.9164 9.81368 22.0094 10.002L24.8324 15.7245L31.1474 16.6425C31.3551 16.6727 31.5503 16.7603 31.7106 16.8956C31.8711 17.0308 31.9907 17.2083 32.0555 17.4078C32.1204 17.6074 32.1282 17.8212 32.078 18.025C32.0279 18.2288 31.9217 18.4144 31.7714 18.561L27.2024 23.016L28.2809 29.304C28.3164 29.5109 28.2935 29.7236 28.2144 29.9181C28.1354 30.1127 28.0035 30.2811 27.8337 30.4046C27.6639 30.528 27.4629 30.6015 27.2535 30.6167C27.0441 30.6318 26.8347 30.5882 26.6489 30.4905L20.9999 27.5205L15.3509 30.4905C15.1652 30.588 14.9559 30.6317 14.7467 30.6165C14.5375 30.6014 14.3366 30.528 14.1669 30.4049C13.9972 30.2816 13.8653 30.1133 13.7861 29.919C13.7069 29.7248 13.6836 29.5124 13.7189 29.3055L14.7989 23.0145L10.2269 18.561C10.0762 18.4145 9.96963 18.2287 9.91916 18.0247C9.86869 17.8207 9.87636 17.6067 9.94132 17.4068C10.0063 17.2069 10.1259 17.0293 10.2867 16.8939C10.4474 16.7586 10.6429 16.671 10.8509 16.641L17.1659 15.7245L19.9904 10.002C20.0833 9.81368 20.2272 9.65514 20.4056 9.54433C20.584 9.43352 20.7899 9.37487 20.9999 9.375ZM20.9999 13.0425L18.9224 17.25C18.8417 17.4134 18.7226 17.5547 18.5752 17.6618C18.4278 17.7689 18.2566 17.8387 18.0764 17.865L13.4309 18.54L16.7909 21.816C16.9216 21.9433 17.0194 22.1005 17.0759 22.274C17.1323 22.4475 17.1457 22.6322 17.1149 22.812L16.3229 27.438L20.4764 25.254C20.6378 25.1691 20.8175 25.1249 20.9999 25.1249C21.1823 25.1249 21.3619 25.1691 21.5234 25.254L25.6784 27.438L24.8834 22.812C24.8526 22.6322 24.866 22.4475 24.9224 22.274C24.9789 22.1005 25.0767 21.9433 25.2074 21.816L28.5674 18.5415L23.9234 17.8665C23.7431 17.8402 23.5719 17.7704 23.4246 17.6633C23.2772 17.5562 23.1581 17.4149 23.0774 17.2515L20.9999 13.041V13.0425Z" fill="#9CDA69"/>
</svg>
