<svg width="45" height="41" viewBox="0 0 45 41" fill="none" xmlns="http://www.w3.org/2000/svg">
<path fill-rule="evenodd" clip-rule="evenodd" d="M44.2511 1.0503C44.4309 1.70173 44.5807 2.36731 44.6406 3.0329C44.8354 5.3837 45.0601 13.2716 44.9852 14.8577C44.9852 15.3392 44.8953 15.8773 44.6856 16.3163C44.311 17.0952 43.3521 17.1519 42.8277 16.4296C42.6329 16.1747 42.513 15.8349 42.4531 15.5091C42.2883 14.5603 42.1534 13.6115 42.0785 12.6627C41.8688 9.80208 41.674 6.9273 41.5391 4.06669C41.4942 3.11787 41.5991 2.15489 41.7189 1.20608C41.8088 0.498003 42.4231 -0.0401324 42.9925 0.00235197C43.6667 0.0589978 44.0862 0.46968 44.2511 1.0503ZM23.7542 19.9132C23.6968 19.696 23.647 19.4918 23.5994 19.297C23.4982 18.882 23.4073 18.5092 23.2747 18.143C21.3269 12.705 18.1955 7.86177 14.6295 3.2593C14.21 2.72117 13.6856 2.21135 13.1012 1.87148C12.7866 1.68738 12.1573 1.7157 11.7977 1.8998C11.528 2.04142 11.3332 2.59371 11.3932 2.90527C11.498 3.50005 11.7228 4.10899 12.0374 4.64713C14.1051 8.20165 16.1877 11.742 18.3004 15.2682C18.9218 16.2988 19.5707 17.3207 20.2184 18.3408L20.2186 18.341L20.2199 18.3431C20.3994 18.6258 20.5789 18.9084 20.7576 19.1909C21.0273 19.6299 21.3269 20.0548 21.6416 20.4513C21.9862 20.9045 22.5106 21.1735 23.035 20.8761C23.0681 20.8571 23.1015 20.8386 23.1348 20.8201C23.4481 20.6462 23.7542 20.4764 23.7542 19.9132ZM3.29364 40.8917L3.29393 40.8917C3.81493 40.8204 4.36686 40.7449 4.90551 40.6318C8.0969 39.9521 11.2883 39.2723 14.4647 38.5642C15.1539 38.4085 15.8282 38.1394 16.4425 37.8278C17.2665 37.4172 17.5512 36.8365 17.4164 36.1993C17.2815 35.562 16.7421 35.1655 15.7982 35.1513C15.1539 35.1372 14.4647 35.1513 13.8504 35.2929C9.81995 36.2559 5.78951 37.2472 1.77404 38.2527C1.32455 38.366 0.860077 38.5642 0.515465 38.8475C-0.353554 39.5414 -0.0838585 40.6318 1.02489 40.9009C1.29952 40.9635 1.5981 40.9696 1.92817 40.9763H1.92823C2.12037 40.9802 2.32319 40.9844 2.53818 41C2.77848 40.9621 3.03216 40.9275 3.29364 40.8917Z" fill="#1BDB74"/>
</svg>
