<svg width="19" height="19" viewBox="0 0 19 19" fill="none" xmlns="http://www.w3.org/2000/svg">
<path d="M0 5C0 2.23858 2.23858 0 5 0H14C16.7614 0 19 2.23858 19 5V14C19 16.7614 16.7614 19 14 19H5C2.23858 19 0 16.7614 0 14V5Z" fill="#F7F7F7"/>
<path d="M14.812 5.70791C14.7384 5.63371 14.6509 5.57482 14.5544 5.53462C14.4579 5.49443 14.3544 5.47374 14.2499 5.47374C14.1454 5.47374 14.042 5.49443 13.9455 5.53462C13.849 5.57482 13.7615 5.63371 13.6879 5.70791L7.78994 11.6137L5.31202 9.12791C5.23561 9.0541 5.14541 8.99606 5.04656 8.95711C4.94772 8.91815 4.84217 8.89905 4.73594 8.90089C4.62972 8.90273 4.52489 8.92547 4.42746 8.96782C4.33002 9.01017 4.24188 9.07129 4.16806 9.14771C4.09425 9.22412 4.03621 9.31432 3.99726 9.41316C3.9583 9.51201 3.9392 9.61756 3.94104 9.72378C3.94288 9.83001 3.96562 9.93483 4.00797 10.0323C4.05032 10.1297 4.11144 10.2178 4.18786 10.2917L7.22786 13.3317C7.30145 13.4059 7.38901 13.4648 7.48548 13.505C7.58195 13.5451 7.68543 13.5658 7.78994 13.5658C7.89445 13.5658 7.99792 13.5451 8.0944 13.505C8.19087 13.4648 8.27843 13.4059 8.35202 13.3317L14.812 6.87166C14.8924 6.79753 14.9565 6.70756 15.0004 6.60741C15.0442 6.50726 15.0669 6.39912 15.0669 6.28979C15.0669 6.18046 15.0442 6.07231 15.0004 5.97217C14.9565 5.87202 14.8924 5.78205 14.812 5.70791Z" fill="#1BDB74"/>
</svg>
