<svg width="34" height="34" viewBox="0 0 34 34" fill="none" xmlns="http://www.w3.org/2000/svg">
<path d="M31.1666 9.27909C31.1507 8.6679 31.1034 8.05793 31.0249 7.45159C30.9191 6.92051 30.7429 6.40596 30.5008 5.92159C30.2475 5.39615 29.9075 4.91721 29.4949 4.50492C29.0785 4.09721 28.6004 3.75776 28.0783 3.49909C27.5932 3.26171 27.0787 3.0902 26.5483 2.98909C25.9477 2.89913 25.342 2.84708 24.7349 2.83325H9.27909C8.6679 2.84917 8.05793 2.89645 7.45159 2.97492C6.92051 3.0807 6.40596 3.25698 5.92159 3.49909C5.39615 3.7523 4.91721 4.09235 4.50492 4.50492C4.09721 4.92129 3.75776 5.39939 3.49909 5.92159C3.26171 6.4066 3.0902 6.92115 2.98909 7.45159C2.89913 8.05216 2.84708 8.6578 2.83325 9.26492C2.83325 9.53409 2.83325 9.91659 2.83325 10.0299V23.9699C2.83325 24.1258 2.83325 24.4658 2.83325 24.7208C2.84917 25.3319 2.89645 25.9419 2.97492 26.5483C3.0807 27.0793 3.25698 27.5939 3.49909 28.0783C3.7523 28.6037 4.09235 29.0826 4.50492 29.4949C4.92129 29.9026 5.39939 30.2421 5.92159 30.5008C6.4066 30.7381 6.92115 30.9096 7.45159 31.0108C8.05216 31.1007 8.6578 31.1528 9.26492 31.1666H24.7208C25.3319 31.1507 25.9419 31.1034 26.5483 31.0249C27.0793 30.9191 27.5939 30.7429 28.0783 30.5008C28.6037 30.2475 29.0826 29.9075 29.4949 29.4949C29.9026 29.0785 30.2421 28.6004 30.5008 28.0783C30.7381 27.5932 30.9096 27.0787 31.0108 26.5483C31.1007 25.9477 31.1528 25.342 31.1666 24.7349C31.1666 24.4658 31.1666 24.1258 31.1666 23.9699V10.0299C31.1666 9.91659 31.1666 9.53409 31.1666 9.27909ZM17.3258 26.9166C15.6244 26.9082 13.9529 26.4696 12.4666 25.6416L7.08325 27.0583L8.49992 21.7883C7.58633 20.2532 7.0974 18.5029 7.08325 16.7166C7.08889 14.7091 7.68846 12.7481 8.80643 11.0807C9.9244 9.41324 11.5108 8.11392 13.3658 7.34635C15.2208 6.57878 17.2614 6.37729 19.2307 6.76725C21.2 7.15721 23.0099 8.12119 24.4324 9.53777C25.8549 10.9544 26.8263 12.7602 27.2245 14.7278C27.6226 16.6955 27.4296 18.737 26.6698 20.5951C25.9099 22.4533 24.6172 24.0451 22.9545 25.17C21.2917 26.2949 19.3332 26.9026 17.3258 26.9166ZM17.3258 8.31575C15.8238 8.33294 14.3533 8.74781 13.0638 9.51813C11.7743 10.2884 10.712 11.3867 9.98501 12.7011C9.258 14.0154 8.89226 15.499 8.92504 17.0007C8.95781 18.5023 9.38793 19.9685 10.1716 21.2499L10.3699 21.5758L9.51992 24.6783L12.7499 23.7999L13.0616 23.9841C14.3501 24.7431 15.8161 25.1487 17.3116 25.1599C19.5659 25.1599 21.7279 24.2644 23.322 22.6703C24.9161 21.0763 25.8116 18.9143 25.8116 16.6599C25.8116 14.4056 24.9161 12.2436 23.322 10.6495C21.7279 9.05545 19.5659 8.15992 17.3116 8.15992L17.3258 8.31575ZM22.2841 20.3858C22.0985 20.6952 21.8501 20.9623 21.5548 21.1698C21.2595 21.3772 20.924 21.5203 20.5699 21.5899C20.0409 21.6866 19.4962 21.6526 18.9833 21.4908C18.5007 21.3399 18.0276 21.1601 17.5666 20.9524C15.8152 20.0736 14.3216 18.7557 13.2316 17.1274C12.6393 16.373 12.2799 15.4622 12.1974 14.5066C12.189 14.1096 12.2641 13.7153 12.4178 13.3492C12.5716 12.9832 12.8006 12.6535 13.0899 12.3816C13.1751 12.285 13.2797 12.2073 13.3968 12.1536C13.514 12.0999 13.6411 12.0714 13.7699 12.0699H14.1666C14.3224 12.0699 14.5349 12.0699 14.7333 12.5091C14.9316 12.9483 15.4558 14.2658 15.5266 14.3933C15.5614 14.4612 15.5795 14.5365 15.5795 14.6128C15.5795 14.6892 15.5614 14.7645 15.5266 14.8324C15.464 14.9864 15.3779 15.1297 15.2716 15.2574C15.1441 15.4133 15.0024 15.5974 14.8891 15.7108C14.7758 15.8241 14.6341 15.9658 14.7758 16.2208C15.1612 16.8713 15.6383 17.4629 16.1924 17.9774C16.7958 18.5106 17.4857 18.937 18.2324 19.2383C18.4874 19.3658 18.6433 19.3516 18.7849 19.2383C18.9266 19.1249 19.4224 18.5016 19.5924 18.2466C19.7624 17.9916 19.9324 18.0341 20.1591 18.1191C20.3858 18.2041 21.6466 18.8133 21.9016 18.9408C22.1566 19.0683 22.3124 19.1249 22.3833 19.2383C22.4447 19.609 22.4106 19.9893 22.2841 20.3433V20.3858Z" fill="#1BDB74"/>
</svg>
