<svg width="41" height="41" viewBox="0 0 41 41" fill="none" xmlns="http://www.w3.org/2000/svg">
<rect width="41" height="41" rx="10" fill="#1AAECE" fill-opacity="0.1"/>
<path fill-rule="evenodd" clip-rule="evenodd" d="M11.9688 12.2969C11.9688 11.7532 11.528 11.3125 10.9844 11.3125C10.4407 11.3125 10 11.7532 10 12.2969V28.7031C10 29.2468 10.4407 29.6875 10.9844 29.6875H30.0156C30.5593 29.6875 31 29.2468 31 28.7031C31 28.1595 30.5593 27.7188 30.0156 27.7188H11.9688V12.2969ZM30.7116 15.6179C31.0961 15.2335 31.0961 14.6102 30.7116 14.2258C30.3272 13.8414 29.704 13.8414 29.3196 14.2258L23.125 20.4204L19.8836 17.1789C19.4991 16.7945 18.8759 16.7945 18.4914 17.1789L14.2258 21.4446C13.8414 21.829 13.8414 22.4523 14.2258 22.8367C14.6102 23.2211 15.2335 23.2211 15.6179 22.8367L19.1875 19.2671L22.4289 22.5086C22.6135 22.6932 22.8639 22.7969 23.125 22.7969C23.3861 22.7969 23.6365 22.6932 23.821 22.5086L30.7116 15.6179Z" fill="#1AAECE"/>
</svg>
