<svg width="61" height="63" viewBox="0 0 61 63" fill="none" xmlns="http://www.w3.org/2000/svg">
<rect x="1" y="2" width="59" height="59" rx="10" fill="#192030"/>
<path d="M28.0455 25.8814C28.0455 27.097 29.7856 28.1433 33.2658 29.005C34.4932 29.2666 35.5963 29.5898 36.5906 29.9437C37.585 30.2976 38.5949 30.8208 39.6047 31.4824C40.6146 32.1441 41.407 33.0212 41.9818 34.1291C42.5567 35.237 42.8363 36.4987 42.8363 37.9452C42.8363 40.8688 41.7177 43.1154 39.5115 44.7157C37.2898 46.2698 34.5554 47.0546 31.2927 47.0546C25.3888 47.0546 21.3804 44.7926 19.2363 40.2841L25.684 36.6988C26.5696 39.1608 28.434 40.3918 31.3082 40.3918C33.9494 40.3918 35.27 39.5762 35.27 37.9452C35.27 36.7296 33.5299 35.6832 30.0498 34.8215C28.7447 34.483 27.6416 34.1445 26.7249 33.7905C25.8083 33.452 24.8139 32.9442 23.7419 32.2826C22.6699 31.6209 21.862 30.7592 21.3027 29.7282C20.7434 28.6819 20.4637 27.4663 20.4637 26.066C20.4637 23.2655 21.5047 21.0651 23.571 19.4648C25.684 17.8337 28.2786 17.0182 31.3859 17.0182C33.7164 17.0182 35.8449 17.5414 37.7559 18.5877C39.6669 19.6341 41.1895 21.1113 42.2926 23.0501L35.9692 26.4661C35.0525 24.5273 33.5144 23.5579 31.3704 23.5579C30.4071 23.5579 29.6147 23.7733 28.9933 24.2195C28.3563 24.6504 28.0455 25.2043 28.0455 25.8814Z" fill="white"/>
</svg>
